<svg width="37" height="28" viewBox="0 0 37 28" fill="none" xmlns="http://www.w3.org/2000/svg">
<path d="M32.7473 0.724539C32.9769 0.495141 33.2509 0.312902 33.5532 0.188492C33.8556 0.0640813 34.1803 0 34.5082 0C34.8362 0 35.1609 0.0640813 35.4632 0.188492C35.7656 0.312902 36.0396 0.495141 36.2691 0.724539C37.2311 1.67661 37.2446 3.21507 36.3028 4.18361L16.4132 27.2111C16.1874 27.454 15.9133 27.6492 15.6078 27.7847C15.3023 27.9203 14.9718 27.9934 14.6365 27.9996C14.3012 28.0057 13.9681 27.9448 13.6576 27.8206C13.3471 27.6964 13.0658 27.5114 12.8308 27.277L0.728215 15.2658C0.261458 14.7996 0 14.1727 0 13.5198C0 12.8669 0.261458 12.24 0.728215 11.7738C0.957774 11.5444 1.23176 11.3621 1.53412 11.2377C1.83648 11.1133 2.16115 11.0492 2.48911 11.0492C2.81708 11.0492 3.14175 11.1133 3.44411 11.2377C3.74647 11.3621 4.02045 11.5444 4.25001 11.7738L14.516 21.9632L32.68 0.797015C32.701 0.771556 32.7234 0.747353 32.7473 0.724539Z" fill="#EDF2F4"/>
</svg>
