<svg width="51" height="32" viewBox="0 0 51 32" fill="none" xmlns="http://www.w3.org/2000/svg">
<path fill-rule="evenodd" clip-rule="evenodd" d="M5.07213 9.29199C5.16502 9.19886 5.27535 9.12497 5.39683 9.07456C5.51831 9.02415 5.64853 8.9982 5.78005 8.9982C5.91157 8.9982 6.0418 9.02415 6.16327 9.07456C6.28475 9.12497 6.39509 9.19886 6.48797 9.29199L17.7786 20.586L29.0693 9.29199C29.1623 9.19901 29.2726 9.12526 29.3941 9.07494C29.5156 9.02462 29.6458 8.99872 29.7772 8.99872C29.9087 8.99872 30.0389 9.02462 30.1604 9.07494C30.2818 9.12526 30.3922 9.19901 30.4852 9.29199C30.5781 9.38496 30.6519 9.49534 30.7022 9.61682C30.7525 9.7383 30.7784 9.8685 30.7784 9.99999C30.7784 10.1315 30.7525 10.2617 30.7022 10.3832C30.6519 10.5046 30.5781 10.615 30.4852 10.708L18.4866 22.708C18.3937 22.8011 18.2833 22.875 18.1619 22.9254C18.0404 22.9758 17.9102 23.0018 17.7786 23.0018C17.6471 23.0018 17.5169 22.9758 17.3954 22.9254C17.2739 22.875 17.1636 22.8011 17.0707 22.708L5.07213 10.708C4.97902 10.6151 4.90514 10.5047 4.85474 10.3833C4.80433 10.2618 4.77838 10.1315 4.77838 9.99999C4.77838 9.86845 4.80433 9.73821 4.85474 9.61672C4.90514 9.49523 4.97902 9.38488 5.07213 9.29199Z" fill="#EDF2F4"/>
</svg>
