<svg width="32" height="32" viewBox="0 0 32 32" fill="none" xmlns="http://www.w3.org/2000/svg">
<path d="M25.7081 0.29184C25.5206 0.104369 25.2663 -0.000946045 25.0011 -0.000946045C24.7359 -0.000946045 24.4816 0.104369 24.2941 0.29184L21.0001 3.58584L28.4141 10.9998L31.7081 7.70784C31.8012 7.61495 31.8751 7.5046 31.9255 7.38311C31.9759 7.26162 32.0019 7.13137 32.0019 6.99984C32.0019 6.86831 31.9759 6.73806 31.9255 6.61657C31.8751 6.49508 31.8012 6.38473 31.7081 6.29184L25.7081 0.29184V0.29184ZM27.0001 12.4138L19.5861 4.99984L6.5861 17.9998H7.0001C7.26532 17.9998 7.51967 18.1052 7.70721 18.2927C7.89474 18.4803 8.0001 18.7346 8.0001 18.9998V19.9998H9.0001C9.26532 19.9998 9.51967 20.1052 9.70721 20.2927C9.89474 20.4803 10.0001 20.7346 10.0001 20.9998V21.9998H11.0001C11.2653 21.9998 11.5197 22.1052 11.7072 22.2927C11.8947 22.4803 12.0001 22.7346 12.0001 22.9998V23.9998H13.0001C13.2653 23.9998 13.5197 24.1052 13.7072 24.2927C13.8947 24.4803 14.0001 24.7346 14.0001 24.9998V25.4138L27.0001 12.4138V12.4138ZM12.0641 27.3498C12.022 27.2379 12.0003 27.1194 12.0001 26.9998V25.9998H11.0001C10.7349 25.9998 10.4805 25.8945 10.293 25.7069C10.1055 25.5194 10.0001 25.2651 10.0001 24.9998V23.9998H9.0001C8.73488 23.9998 8.48053 23.8945 8.29299 23.7069C8.10546 23.5194 8.0001 23.2651 8.0001 22.9998V21.9998H7.0001C6.73488 21.9998 6.48053 21.8945 6.29299 21.7069C6.10546 21.5194 6.0001 21.2651 6.0001 20.9998V19.9998H5.0001C4.88054 19.9996 4.76199 19.978 4.6501 19.9358L4.2921 20.2918C4.1968 20.3878 4.12196 20.5021 4.0721 20.6278L0.0721004 30.6278C-0.000640906 30.8096 -0.0184479 31.0086 0.020887 31.2004C0.0602219 31.3922 0.154969 31.5681 0.293382 31.7066C0.431795 31.845 0.607787 31.9397 0.799539 31.9791C0.991292 32.0184 1.19037 32.0006 1.3721 31.9278L11.3721 27.9278C11.4978 27.878 11.6121 27.8031 11.7081 27.7078L12.0641 27.3518V27.3498Z" fill="#EDF2F4"/>
</svg>
