<svg width="51" height="51" viewBox="0 0 51 51" fill="none" xmlns="http://www.w3.org/2000/svg">
<g clip-path="url(#clip0_7_235)">
<path d="M51 25.5C51 32.263 48.3134 38.749 43.5312 43.5312C38.749 48.3134 32.263 51 25.5 51C18.737 51 12.251 48.3134 7.46878 43.5312C2.6866 38.749 0 32.263 0 25.5C0 18.737 2.6866 12.251 7.46878 7.46878C12.251 2.6866 18.737 0 25.5 0C32.263 0 38.749 2.6866 43.5312 7.46878C48.3134 12.251 51 18.737 51 25.5V25.5ZM27.0938 14.3438C27.0938 13.9211 26.9258 13.5157 26.627 13.2168C26.3281 12.9179 25.9227 12.75 25.5 12.75C25.0773 12.75 24.6719 12.9179 24.373 13.2168C24.0742 13.5157 23.9062 13.9211 23.9062 14.3438V23.9062H14.3438C13.9211 23.9062 13.5157 24.0742 13.2168 24.373C12.9179 24.6719 12.75 25.0773 12.75 25.5C12.75 25.9227 12.9179 26.3281 13.2168 26.627C13.5157 26.9258 13.9211 27.0938 14.3438 27.0938H23.9062V36.6562C23.9062 37.0789 24.0742 37.4843 24.373 37.7832C24.6719 38.0821 25.0773 38.25 25.5 38.25C25.9227 38.25 26.3281 38.0821 26.627 37.7832C26.9258 37.4843 27.0938 37.0789 27.0938 36.6562V27.0938H36.6562C37.0789 27.0938 37.4843 26.9258 37.7832 26.627C38.0821 26.3281 38.25 25.9227 38.25 25.5C38.25 25.0773 38.0821 24.6719 37.7832 24.373C37.4843 24.0742 37.0789 23.9062 36.6562 23.9062H27.0938V14.3438Z" fill="#49B285"/>
</g>
<defs>
<clipPath id="clip0_7_235">
<rect width="51" height="51" fill="white"/>
</clipPath>
</defs>
</svg>
