<svg width="32" height="32" viewBox="0 0 32 32" fill="none" xmlns="http://www.w3.org/2000/svg">
<path d="M4.29201 5.70801C4.19904 5.61504 4.12528 5.50466 4.07497 5.38318C4.02465 5.2617 3.99875 5.1315 3.99875 5.00001C3.99875 4.86852 4.02465 4.73832 4.07497 4.61685C4.12528 4.49537 4.19904 4.38499 4.29201 4.29201C4.38499 4.19904 4.49537 4.12528 4.61685 4.07497C4.73832 4.02465 4.86852 3.99875 5.00001 3.99875C5.1315 3.99875 5.2617 4.02465 5.38318 4.07497C5.50466 4.12528 5.61504 4.19904 5.70801 4.29201L16 14.586L26.292 4.29201C26.385 4.19904 26.4954 4.12528 26.6168 4.07497C26.7383 4.02465 26.8685 3.99875 27 3.99875C27.1315 3.99875 27.2617 4.02465 27.3832 4.07497C27.5047 4.12528 27.615 4.19904 27.708 4.29201C27.801 4.38499 27.8747 4.49537 27.9251 4.61685C27.9754 4.73832 28.0013 4.86852 28.0013 5.00001C28.0013 5.1315 27.9754 5.2617 27.9251 5.38318C27.8747 5.50466 27.801 5.61504 27.708 5.70801L17.414 16L27.708 26.292C27.801 26.385 27.8747 26.4954 27.9251 26.6168C27.9754 26.7383 28.0013 26.8685 28.0013 27C28.0013 27.1315 27.9754 27.2617 27.9251 27.3832C27.8747 27.5047 27.801 27.615 27.708 27.708C27.615 27.801 27.5047 27.8747 27.3832 27.9251C27.2617 27.9754 27.1315 28.0013 27 28.0013C26.8685 28.0013 26.7383 27.9754 26.6168 27.9251C26.4954 27.8747 26.385 27.801 26.292 27.708L16 17.414L5.70801 27.708C5.61504 27.801 5.50466 27.8747 5.38318 27.9251C5.2617 27.9754 5.1315 28.0013 5.00001 28.0013C4.86852 28.0013 4.73832 27.9754 4.61685 27.9251C4.49537 27.8747 4.38499 27.801 4.29201 27.708C4.19904 27.615 4.12528 27.5047 4.07497 27.3832C4.02465 27.2617 3.99875 27.1315 3.99875 27C3.99875 26.8685 4.02465 26.7383 4.07497 26.6168C4.12528 26.4954 4.19904 26.385 4.29201 26.292L14.586 16L4.29201 5.70801Z" fill="#EDF2F4"/>
</svg>
